<?xml version="1.0" standalone="no"?><!DOCTYPE svg PUBLIC "-//W3C//DTD SVG 1.1//EN" "http://www.w3.org/Graphics/SVG/1.1/DTD/svg11.dtd"><svg t="1587982647554" class="icon" viewBox="0 0 1024 1024" version="1.1" xmlns="http://www.w3.org/2000/svg" p-id="1895" xmlns:xlink="http://www.w3.org/1999/xlink" width="200" height="200"><defs><style type="text/css"></style></defs><path d="M911.6 430.3L574 115.6C557 96.2 532.3 85 506.2 85c-25.7 0-50.4 11.1-66.7 29.5l-325 315.7c-16.2 16.6-20.9 40.7-11.9 62.1 9 21.4 29.8 34.8 53 34.8h29.3v321c0 49.8 39.8 90.2 89.6 90.2h139.6c18.1 0 34.2-14.6 34.2-32.7V691.9c0-9.1 6-17.1 15.1-17.1h98.5c9.1 0 16 8.2 16 17.1v213.5c0 18.2 15.2 32.7 33.2 32.7h139.6c49.8 0 90.5-40.4 90.5-90.2V527h29.2c23.1 0 43.9-13.4 52.9-34.7 9-21.3 4.4-45.4-11.7-62m0 0z m0 0" p-id="1896" fill="#ffffff"></path></svg>