<?xml version="1.0" standalone="no"?><!DOCTYPE svg PUBLIC "-//W3C//DTD SVG 1.1//EN" "http://www.w3.org/Graphics/SVG/1.1/DTD/svg11.dtd"><svg t="1587982961174" class="icon" viewBox="0 0 1024 1024" version="1.1" xmlns="http://www.w3.org/2000/svg" p-id="4167" xmlns:xlink="http://www.w3.org/1999/xlink" width="200" height="200"><defs><style type="text/css"></style></defs><path d="M517.76 742.336c130.304 0 236.48-106.24 236.48-236.352 0-130.24-106.176-236.48-236.48-236.48-130.112 0-236.352 106.24-236.352 236.48C281.408 636.032 387.712 742.336 517.76 742.336z" p-id="4168" fill="#ffcf23"></path><path d="M500.16 798.72l49.408 0 0 155.328-49.408 0 0-155.328Z" p-id="4169" fill="#ffcf23"></path><path d="M493.12 42.752l49.472 0 0 155.2-49.472 0 0-155.2Z" p-id="4170" fill="#ffcf23"></path><path d="M808.192 477.696l178.752 0 0 54.848-178.752 0 0-54.848Z" p-id="4171" fill="#ffcf23"></path><path d="M47.936 478.592l168.192 0 0 54.656-168.192 0 0-54.656Z" p-id="4172" fill="#ffcf23"></path><path d="M214.999373 841.530637l-34.590822-35.37248 110.968-108.51584 34.590822 35.37248-110.968 108.51584Z" p-id="4173" fill="#ffcf23"></path><path d="M750.084557 307.42967l-34.481843-35.38601 111.062566-108.224749 34.481843 35.38601-111.062566 108.224749Z" p-id="4174" fill="#ffcf23"></path><path d="M822.242061 859.090822l-125.018938-127.573261 39.035315-38.253734 125.018938 127.573261-39.035315 38.253734Z" p-id="4175" fill="#ffcf23"></path><path d="M282.328429 308.941958l-117.616666-120.240461 38.982067-38.13143 117.616666 120.240461-38.982067 38.13143Z" p-id="4176" fill="#ffcf23"></path><path d="M500.16 798.72l49.408 0 0 155.328-49.408 0 0-155.328Z" p-id="4177" fill="#ffcf23"></path><path d="M493.12 42.752l49.472 0 0 155.2-49.472 0 0-155.2Z" p-id="4178" fill="#ffcf23"></path><path d="M808.192 477.696l157.696 0 0 48.192-157.696 0 0-48.192Z" p-id="4179" fill="#ffcf23"></path><path d="M69.12 478.592l147.072 0 0 47.808-147.072 0 0-47.808Z" p-id="4180" fill="#ffcf23"></path></svg>