<?xml version="1.0" standalone="no"?><!DOCTYPE svg PUBLIC "-//W3C//DTD SVG 1.1//EN" "http://www.w3.org/Graphics/SVG/1.1/DTD/svg11.dtd"><svg t="1587548016363" class="icon" viewBox="0 0 1024 1024" version="1.1" xmlns="http://www.w3.org/2000/svg" p-id="34800" xmlns:xlink="http://www.w3.org/1999/xlink" width="200" height="200"><defs><style type="text/css"></style></defs><path d="M480 320a32 32 0 0 1 32 32v384a32 32 0 1 1-64 0v-384a32 32 0 0 1 32-32z" p-id="34801" fill="#989898"></path><path d="M704 544a32 32 0 0 1-32 32h-384a32 32 0 0 1 0-64h384a32 32 0 0 1 32 32zM150.592 64h658.816C892.608 64 960 131.392 960 214.592v658.816c0 83.2-67.392 150.592-150.592 150.592H150.592A150.592 150.592 0 0 1 0 873.408V214.592C0 131.392 67.392 64 150.592 64zM153.6 128A89.6 89.6 0 0 0 64 217.6v652.8A89.6 89.6 0 0 0 153.6 960h652.8a89.6 89.6 0 0 0 89.6-89.6V217.6A89.6 89.6 0 0 0 806.4 128H153.6z" p-id="34802" fill="#989898"></path></svg>