<?xml version="1.0" standalone="no"?><!DOCTYPE svg PUBLIC "-//W3C//DTD SVG 1.1//EN" "http://www.w3.org/Graphics/SVG/1.1/DTD/svg11.dtd"><svg t="1587700318400" class="icon" viewBox="0 0 1516 1024" version="1.1" xmlns="http://www.w3.org/2000/svg" p-id="2731" xmlns:xlink="http://www.w3.org/1999/xlink" width="296.09375" height="200"><defs><style type="text/css"></style></defs><path d="M 785.042 460.323 l -35.9487 -53.9229 c 4.49359 -4.49359 8.98716 -8.98716 13.4807 -17.9743 c 130.314 -175.25 310.057 -184.237 435.877 -166.262 l -98.8589 -94.3652 c -8.98716 -4.49359 -8.98716 -17.9743 0 -22.4679 l 22.4679 -22.4679 c 8.98716 -4.49359 17.9743 -4.49359 22.4679 0 l 184.237 184.237 c 4.49359 0 8.98716 4.49359 8.98716 4.49359 V 343.491 c -310.057 -125.821 -462.837 -4.49359 -552.71 116.833 Z m 548.217 296.575 v 67.4037 s -4.49359 0 -8.98716 4.49359 l -184.237 184.237 c -4.49359 4.49359 -17.9743 4.49359 -22.4679 0 l -22.4679 -22.4679 c -4.49359 -4.49359 -4.49359 -17.9743 0 -22.4679 l 98.8589 -94.3652 c -121.327 22.4679 -301.07 8.98716 -435.877 -161.77 c -224.679 -292.083 -229.173 -413.409 -543.725 -417.902 V 217.669 s 260.628 -71.8973 489.801 296.575 c 76.3909 116.833 211.198 404.423 629.102 242.653 Z m -750.428 -125.821 l 40.4423 58.4165 c -206.706 242.653 -408.916 184.237 -408.916 184.237 v -71.8973 c 206.706 4.49359 278.603 -49.4294 368.474 -170.756 Z m 0 0" p-id="2732" fill="#ffffff"></path></svg>