<?xml version="1.0" standalone="no"?><!DOCTYPE svg PUBLIC "-//W3C//DTD SVG 1.1//EN" "http://www.w3.org/Graphics/SVG/1.1/DTD/svg11.dtd"><svg t="1587986209201" class="icon" viewBox="0 0 1024 1024" version="1.1" xmlns="http://www.w3.org/2000/svg" p-id="7918" xmlns:xlink="http://www.w3.org/1999/xlink" width="200" height="200"><defs><style type="text/css"></style></defs><path d="M980.650667 731.420444a43.463111 43.463111 0 0 0-43.349334 43.349334v97.507555c0 35.783111-29.240889 65.024-65.024 65.024H151.722667a65.194667 65.194667 0 0 1-65.024-65.024V151.722667c0-35.783111 29.240889-65.024 65.024-65.024h720.554666c35.783111 0 65.024 29.240889 65.024 65.024v43.349333c0 23.836444 19.512889 43.292444 43.349334 43.292444A43.463111 43.463111 0 0 0 1024 195.128889v-43.349333C1024 68.266667 955.733333 0 872.277333 0H151.722667A152.177778 152.177778 0 0 0 0 151.722667v720.554666C0 955.733333 68.266667 1024 151.722667 1024h720.554666C955.733333 1024 1024 955.733333 1024 872.277333V774.826667a43.463111 43.463111 0 0 0-43.349333-43.349334z" p-id="7919" fill="#22d59d"></path><path d="M817.265778 670.264889a44.145778 44.145778 0 0 0 31.630222 12.401778c11.605333 0 22.755556-4.323556 31.573333-12.401778l130.332445-126.862222 0.568889-0.568889 2.787555-2.673778c0.568889-0.568889 1.137778-1.137778 1.137778-1.649778 0.568889-0.568889 1.080889-1.080889 1.080889-1.592889 0.568889-0.568889 1.137778-1.137778 1.137778-2.161777 0.568889-0.568889 0.568889-1.137778 1.080889-1.649778 0.568889-0.568889 0.568889-1.592889 1.137777-2.161778 0.568889-0.568889 0.568889-1.080889 1.080889-1.592889 0.568889-0.568889 0.568889-1.649778 0.568889-2.161778 0-0.568889 0.568889-1.137778 0.568889-2.161777 0-0.568889 0.568889-1.649778 0.568889-2.161778 0-0.568889 0.512-1.080889 0.512-2.161778s0-1.592889 0.568889-2.673778v-1.649778a22.641778 22.641778 0 0 0 0-8.647111v-1.592889c0-1.137778 0-1.649778-0.568889-2.730666 0-0.568889-0.568889-1.080889-0.568889-2.161778 0-0.568889-0.568889-1.592889-0.568889-2.161778 0-0.568889-0.568889-1.080889-0.568889-2.161778 0-0.512-0.568889-1.592889-0.568889-2.104888 0-0.568889-0.512-1.137778-1.080889-1.649778-0.568889-0.568889-0.568889-1.592889-1.137777-2.161778-0.512-0.568889-0.512-1.080889-1.080889-1.592889-0.568889-0.568889-0.568889-1.137778-1.080889-2.161778-0.568889-0.568889-1.137778-1.137778-1.137778-1.649777-0.568889-0.568889-0.568889-1.080889-1.080889-1.592889a6.599111 6.599111 0 0 0-2.787555-2.730667l-0.568889-0.568889-130.275556-126.862222a45.397333 45.397333 0 0 0-62.691555 0 42.552889 42.552889 0 0 0 0 61.041778l54.328889 52.906666H499.484444a43.918222 43.918222 0 0 0-44.373333 43.235556c0 23.722667 19.968 43.121778 44.373333 43.121778h372.679112l-54.328889 52.906666c-17.749333 18.944-17.749333 45.909333-0.568889 63.146667z" p-id="7920" fill="#22d59d"></path></svg>