<?xml version="1.0" standalone="no"?><!DOCTYPE svg PUBLIC "-//W3C//DTD SVG 1.1//EN" "http://www.w3.org/Graphics/SVG/1.1/DTD/svg11.dtd"><svg t="1587986239232" class="icon" viewBox="0 0 1024 1024" version="1.1" xmlns="http://www.w3.org/2000/svg" p-id="8102" xmlns:xlink="http://www.w3.org/1999/xlink" width="200" height="200"><defs><style type="text/css"></style></defs><path d="M511.557358 1023.973556A464.89969 464.89969 0 0 1 237.735706 180.244595a43.163164 43.163164 0 0 1 59.711887 9.639205 42.182183 42.182183 0 0 1-9.80981 59.072117 383.86213 383.86213 0 1 0 447.839151 0 42.182183 42.182183 0 0 1-9.80981-59.072117 43.077861 43.077861 0 0 1 59.711887-9.639205A464.89969 464.89969 0 0 1 511.557358 1023.973556z m0-600.445673a42.651348 42.651348 0 0 1-42.651347-42.310137V42.651348a42.651348 42.651348 0 0 1 85.302695 0V381.217746a42.651348 42.651348 0 0 1-42.651348 42.310137z" p-id="8103" fill="#22d59d"></path></svg>