<?xml version="1.0" standalone="no"?><!DOCTYPE svg PUBLIC "-//W3C//DTD SVG 1.1//EN" "http://www.w3.org/Graphics/SVG/1.1/DTD/svg11.dtd"><svg t="1587579132473" class="icon" viewBox="0 0 1024 1024" version="1.1" xmlns="http://www.w3.org/2000/svg" p-id="43360" xmlns:xlink="http://www.w3.org/1999/xlink" width="200" height="200"><defs><style type="text/css"></style></defs><path d="M1022.689434 943.616c-30.208-155.136-122.88-287.744-257.536-364.032-14.336-6.656-22.016-13.312-46.592-23.04-42.496-17.408-85.504-28.672-127.488-35.328 108.032-34.304 187.904-136.192 187.904-254.464C778.977434 120.832 658.145434 0 512.225434 0S245.473434 120.832 245.473434 266.752c0 115.712 75.776 215.552 180.224 251.904C215.265434 556.032 45.281434 723.968 1.761434 944.128c-4.608 18.432 0 36.864 11.776 53.248 11.776 13.824 30.208 23.04 48.64 23.04h897.536c18.944 0 37.376-9.216 49.152-23.552 13.824-16.384 18.432-34.816 13.824-53.248z" p-id="43361" fill="#ffffff"></path></svg>