<?xml version="1.0" standalone="no"?><!DOCTYPE svg PUBLIC "-//W3C//DTD SVG 1.1//EN" "http://www.w3.org/Graphics/SVG/1.1/DTD/svg11.dtd"><svg t="1587585418716" class="icon" viewBox="0 0 1024 1024" version="1.1" xmlns="http://www.w3.org/2000/svg" p-id="21084" xmlns:xlink="http://www.w3.org/1999/xlink" width="200" height="200"><defs><style type="text/css"></style></defs><path d="M420.087149 71.133084c99.028411 0 188.68743 40.147372 253.605975 105.063871 64.915475 64.915475 105.061824 154.576541 105.061824 253.603929 0 81.759095-27.364231 157.150156-73.459059 217.494523l240.199641 202.714911c20.10592 18.508539 21.437242 49.822732 2.929726 69.930699-18.510586 20.13048-49.804313 21.439288-69.954235 2.951215L655.669632 700.247408c-63.007009 54.951543-145.431254 88.220251-235.582483 88.220251-99.026364 0-188.688453-40.147372-253.603929-105.064894C101.568768 618.509802 61.421396 528.826224 61.421396 429.800883c0-99.005898 40.147372-188.688453 105.061824-253.603929C231.398696 111.302969 321.061808 71.133084 420.087149 71.133084L420.087149 71.133084zM623.600239 226.310306c-52.087309-52.088332-124.059504-84.313268-203.51309-84.313268-79.452563 0-151.402245 32.224935-203.511044 84.313268-52.065819 52.087309-84.289732 124.039038-84.289732 203.490577 0 79.45154 32.223912 151.425781 84.289732 203.512067 52.109822 52.066843 124.059504 84.290755 203.511044 84.290755 79.453586 0 151.425781-32.223912 203.51309-84.290755 52.065819-52.086285 84.289732-124.060527 84.289732-203.512067C707.890994 350.34832 675.666058 278.396591 623.600239 226.310306z" p-id="21085" fill="#cccccc"></path></svg>