<?xml version="1.0" standalone="no"?><!DOCTYPE svg PUBLIC "-//W3C//DTD SVG 1.1//EN" "http://www.w3.org/Graphics/SVG/1.1/DTD/svg11.dtd"><svg t="1587548600443" class="icon" viewBox="0 0 1024 1024" version="1.1" xmlns="http://www.w3.org/2000/svg" p-id="16074" xmlns:xlink="http://www.w3.org/1999/xlink" width="200" height="200"><defs><style type="text/css"></style></defs><path d="M454.87424 989.069659q-33.396814-34.504362-76.676359-86.303503l-88.603793-106.409747q-45.665032-54.866195-90.478104-108.284059T119.116982 595.549543a77.528319 77.528319 0 0 1-31.692895-69.860683 54.440215 54.440215 0 0 1 59.637169-27.433097 754.83616 754.83616 0 0 0 75.568812-0.766764q47.624539-2.555879 79.317434-2.555879a43.620329 43.620329 0 0 0 43.961112-18.828306 119.955904 119.955904 0 0 0 8.519596-50.180417q0-34.504362-0.85196-76.079988t-0.851959-85.195955q0-43.961113-0.85196-86.303502t-0.681568-78.721062a219.720368 219.720368 0 0 1 2.641075-32.885639 74.97244 74.97244 0 0 1 12.268218-31.437307 73.779697 73.779697 0 0 1 28.114665-23.514084 111.351113 111.351113 0 0 1 50.095221-9.456751q36.975044 0 67.560392-0.766763T583.264544 0.796582a98.9977 98.9977 0 0 1 78.209887 24.280847 127.793932 127.793932 0 0 1 21.980556 77.698711v61.170696q0 36.123085 0.85196 76.676359t0.851959 81.617725v73.950089a207.707738 207.707738 0 0 0 10.564299 72.927737 42.597977 42.597977 0 0 0 47.454147 25.558786q26.32555 0 64.152554 1.533528t66.026865 2.044703a65.174905 65.174905 0 0 1 60.65952 22.74732 52.054728 52.054728 0 0 1-18.487523 58.870404q-33.396814 37.656612-77.357927 90.98928t-90.5633 110.754741q-46.602187 57.251682-91.415259 111.436309t-79.999002 93.715551a89.370557 89.370557 0 0 1-60.65952 36.378672 83.662428 83.662428 0 0 1-60.65952-34.078381z" fill="#20d59c" p-id="16075"></path></svg>