<?xml version="1.0" standalone="no"?><!DOCTYPE svg PUBLIC "-//W3C//DTD SVG 1.1//EN" "http://www.w3.org/Graphics/SVG/1.1/DTD/svg11.dtd"><svg t="1587548192123" class="icon" viewBox="0 0 1024 1024" version="1.1" xmlns="http://www.w3.org/2000/svg" p-id="846" xmlns:xlink="http://www.w3.org/1999/xlink" width="200" height="200"><defs><style type="text/css"></style></defs><path d="M512 512m-426.666667 0a426.666667 426.666667 0 1 0 853.333334 0 426.666667 426.666667 0 1 0-853.333334 0Z" fill="#20d59c" p-id="847"></path><path d="M680.533333 738.133333c-10.666667 0-21.333333-4.266667-29.866666-12.8l-166.4-166.4c-8.533333-8.533333-12.8-19.2-12.8-29.866666v-198.4c0-23.466667 19.2-42.666667 42.666666-42.666667s42.666667 19.2 42.666667 42.666667V512l153.6 153.6c17.066667 17.066667 17.066667 42.666667 0 59.733333-8.533333 8.533333-19.2 12.8-29.866667 12.8z" fill="#FFFFFF" p-id="848"></path></svg>