<?xml version="1.0" standalone="no"?><!DOCTYPE svg PUBLIC "-//W3C//DTD SVG 1.1//EN" "http://www.w3.org/Graphics/SVG/1.1/DTD/svg11.dtd"><svg t="1587630197249" class="icon" viewBox="0 0 1024 1024" version="1.1" xmlns="http://www.w3.org/2000/svg" p-id="3763" xmlns:xlink="http://www.w3.org/1999/xlink" width="200" height="200"><defs><style type="text/css"></style></defs><path d="M448 352v179.2l393.6-393.6c12.8-12.8 32.64-12.8 45.44 0s12.8 32.64 0 45.44L493.44 576h178.56c17.92 0 32 14.08 32 32s-14.08 32-32 32H448c-35.2 0-64-28.8-64-64V352c0-17.92 14.08-32 32-32s32 14.08 32 32zM928 512c17.92 0 32 14.08 32 32V896c0 35.2-28.8 64-64 64H128c-35.2 0-64-28.8-64-64V128c0-35.2 28.8-64 64-64h352c17.92 0 32 14.08 32 32s-14.08 32-32 32H128v768h768V544c0-17.92 14.08-32 32-32z" p-id="3764" fill="#c4c4c4"></path></svg>