<?xml version="1.0" standalone="no"?><!DOCTYPE svg PUBLIC "-//W3C//DTD SVG 1.1//EN" "http://www.w3.org/Graphics/SVG/1.1/DTD/svg11.dtd"><svg t="1587630560445" class="icon" viewBox="0 0 1024 1024" version="1.1" xmlns="http://www.w3.org/2000/svg" p-id="90582" xmlns:xlink="http://www.w3.org/1999/xlink" width="200" height="200"><defs><style type="text/css"></style></defs><path d="M357 484H127C57 484 0 427 0 357V127C0 57 57 0 127 0h230c70 0 127 57 127 127v230c0 70-57 127-127 127zM127 56c-39.1 0-71 31.9-71 71v230c0 39.1 31.9 71 71 71h230c39.1 0 71-31.9 71-71V127c0-39.1-31.9-71-71-71H127z m230 968H127C57 1024 0 967 0 897V667c0-70 57-127 127-127h230c70 0 127 57 127 127v230c0 70-57 127-127 127zM127 596c-39.1 0-71 31.9-71 71v230c0 39.1 31.9 71 71 71h230c39.1 0 71-31.9 71-71V667c0-39.1-31.9-71-71-71H127z m869-439.4H568c-15.4 0-28-12.6-28-28s12.6-28 28-28h428c15.4 0 28 12.6 28 28s-12.6 28-28 28z m0 229.4H568c-15.4 0-28-12.6-28-28s12.6-28 28-28h428c15.4 0 28 12.6 28 28s-12.6 28-28 28z m0 334.6H568c-15.4 0-28-12.6-28-28s12.6-28 28-28h428c15.4 0 28 12.6 28 28s-12.6 28-28 28z m0 229.4H568c-15.4 0-28-12.6-28-28s12.6-28 28-28h428c15.4 0 28 12.6 28 28s-12.6 28-28 28z" p-id="90583" fill="#575757"></path></svg>