<?xml version="1.0" standalone="no"?><!DOCTYPE svg PUBLIC "-//W3C//DTD SVG 1.1//EN" "http://www.w3.org/Graphics/SVG/1.1/DTD/svg11.dtd"><svg t="1588040494850" class="icon" viewBox="0 0 1024 1024" version="1.1" xmlns="http://www.w3.org/2000/svg" p-id="4973" xmlns:xlink="http://www.w3.org/1999/xlink" width="200" height="200"><defs><style type="text/css"></style></defs><path d="M315.076923 0H157.538462C70.892308 0 0 70.892308 0 157.538462v157.538461c0 86.646154 70.892308 157.538462 157.538462 157.538462h157.538461c86.646154 0 157.538462-70.892308 157.538462-157.538462V157.538462c0-86.646154-70.892308-157.538462-157.538462-157.538462z m551.384615 0H708.923077C622.276923 0 551.384615 70.892308 551.384615 157.538462v157.538461c0 86.646154 70.892308 157.538462 157.538462 157.538462h157.538461c86.646154 0 157.538462-70.892308 157.538462-157.538462V157.538462c0-86.646154-70.892308-157.538462-157.538462-157.538462zM315.076923 551.384615H157.538462C70.892308 551.384615 0 622.276923 0 708.923077v157.538461c0 86.646154 70.892308 157.538462 157.538462 157.538462h157.538461c86.646154 0 157.538462-70.892308 157.538462-157.538462V708.923077c0-86.646154-70.892308-157.538462-157.538462-157.538462z m551.384615 0H708.923077c-86.646154 0-157.538462 70.892308-157.538462 157.538462v157.538461c0 86.646154 70.892308 157.538462 157.538462 157.538462h157.538461c86.646154 0 157.538462-70.892308 157.538462-157.538462V708.923077c0-86.646154-70.892308-157.538462-157.538462-157.538462z" p-id="4974" fill="#22d59d"></path></svg>