<?xml version="1.0" standalone="no"?><!DOCTYPE svg PUBLIC "-//W3C//DTD SVG 1.1//EN" "http://www.w3.org/Graphics/SVG/1.1/DTD/svg11.dtd"><svg t="1588040484370" class="icon" viewBox="0 0 1024 1024" version="1.1" xmlns="http://www.w3.org/2000/svg" p-id="3923" xmlns:xlink="http://www.w3.org/1999/xlink" width="200" height="200"><defs><style type="text/css"></style></defs><path d="M279.248126 950.196425a73.803575 73.803575 0 0 1-73.803575 73.803575H85.513742a73.803575 73.803575 0 0 1-73.803575-73.803575V326.974438a73.803575 73.803575 0 0 1 73.803575-73.803575h119.930809a73.803575 73.803575 0 0 1 73.803575 73.803575v623.221987zM645.486066 950.196425a73.803575 73.803575 0 0 1-73.803575 73.803575h-119.930809a73.803575 73.803575 0 0 1-73.803575-73.803575V73.803575a73.803575 73.803575 0 0 1 73.803575-73.803575h119.930809a73.803575 73.803575 0 0 1 73.803575 73.803575v876.39285zM1012.289833 950.196425a73.803575 73.803575 0 0 1-73.803575 73.803575h-119.930809a73.803575 73.803575 0 0 1-73.803575-73.803575V548.926389a73.803575 73.803575 0 0 1 73.803575-73.803575h119.930809a73.803575 73.803575 0 0 1 73.803575 73.803575v401.270036z" p-id="3924" fill="#22d59d"></path></svg>