<?xml version="1.0" standalone="no"?><!DOCTYPE svg PUBLIC "-//W3C//DTD SVG 1.1//EN" "http://www.w3.org/Graphics/SVG/1.1/DTD/svg11.dtd"><svg t="1588040560482" class="icon" viewBox="0 0 1397 1024" version="1.1" xmlns="http://www.w3.org/2000/svg" p-id="7929" xmlns:xlink="http://www.w3.org/1999/xlink" width="272.8515625" height="200"><defs><style type="text/css"></style></defs><path d="M480.774699 622.869845a42.818886 42.818886 0 0 0-44.800587 44.800586v186.846048a44.871362 44.871362 0 1 0 89.671948 0v-186.846048A44.942137 44.942137 0 0 0 480.774699 622.869845zM916.748811 622.869845a42.818886 42.818886 0 0 0-44.800586 44.800586v186.846048a44.871362 44.871362 0 1 0 89.671948 0v-186.846048a44.942137 44.942137 0 0 0-44.871362-44.800586zM698.761755 685.151861a42.818886 42.818886 0 0 0-44.800586 44.800586v62.282016a44.871362 44.871362 0 1 0 89.671948 0v-62.282016a44.871362 44.871362 0 0 0-44.871362-44.800586z" p-id="7930" fill="#22d59d"></path><path d="M1148.466221 498.659688v-48.976313A443.122389 443.122389 0 0 0 698.761755 0.049684C446.66114 0.049684 249.128064 197.58276 249.128064 449.683375v48.976313a262.858418 262.858418 0 0 0 13.659579 525.292185h31.141008a42.889661 42.889661 0 0 0 44.871361-44.871362v-529.397136c0-205.247553 154.784965-359.961743 359.961743-359.961743s360.032518 154.784965 360.032518 359.961743v529.397136a42.889661 42.889661 0 0 0 44.800586 44.871362h31.141008a262.858418 262.858418 0 0 0 13.730354-525.292185z" p-id="7931" fill="#22d59d"></path></svg>