<?xml version="1.0" standalone="no"?><!DOCTYPE svg PUBLIC "-//W3C//DTD SVG 1.1//EN" "http://www.w3.org/Graphics/SVG/1.1/DTD/svg11.dtd"><svg t="1588040519205" class="icon" viewBox="0 0 1024 1024" version="1.1" xmlns="http://www.w3.org/2000/svg" p-id="5908" xmlns:xlink="http://www.w3.org/1999/xlink" width="200" height="200"><defs><style type="text/css"></style></defs><path d="M298.666667 512c0-117.824 95.509333-213.333333 213.333333-213.333333s213.333333 95.509333 213.333333 213.333333a212.949333 212.949333 0 0 1-81.173333 167.466667l-97.216-138.88a42.666667 42.666667 0 0 0-69.888 0l-97.216 138.88A212.949333 212.949333 0 0 1 298.666667 512zM42.666667 512C42.666667 252.8 252.8 42.666667 512 42.666667s469.333333 210.133333 469.333333 469.333333c0 154.666667-74.816 291.861333-190.250666 377.386667L717.653333 784.426667A340.8 340.8 0 0 0 853.333333 512c0-188.522667-152.810667-341.333333-341.333333-341.333333S170.666667 323.477333 170.666667 512c0 111.296 53.269333 210.133333 135.68 272.448l-73.429334 104.917333C117.504 803.861333 42.666667 666.666667 42.666667 512z m300.224 381.653333l151.36-227.029333a21.333333 21.333333 0 0 1 35.498666 0l151.36 227.050667A42.666667 42.666667 0 0 1 645.610667 960H378.389333a42.666667 42.666667 0 0 1-35.498666-66.346667z" p-id="5909" fill="#22d59d"></path></svg>