<?xml version="1.0" standalone="no"?><!DOCTYPE svg PUBLIC "-//W3C//DTD SVG 1.1//EN" "http://www.w3.org/Graphics/SVG/1.1/DTD/svg11.dtd"><svg t="1587977380032" class="icon" viewBox="0 0 1024 1024" version="1.1" xmlns="http://www.w3.org/2000/svg" p-id="1890" xmlns:xlink="http://www.w3.org/1999/xlink" width="200" height="200"><defs><style type="text/css"></style></defs><path d="M66.56 1024c-23.04 0-40.96-17.92-40.96-40.96 0-99.84 30.72-192 92.16-271.36 28.16-38.4 64-71.68 102.4-97.28 28.16-20.48 58.88-35.84 89.6-48.64-35.84-23.04-66.56-53.76-89.6-89.6-30.72-48.64-48.64-107.52-48.64-163.84 0-168.96 138.24-307.2 307.2-307.2s307.2 138.24 307.2 307.2c0 58.88-17.92 115.2-48.64 163.84-23.04 35.84-53.76 66.56-89.6 89.6 28.16 10.24 53.76 25.6 79.36 40.96l7.68 5.12c10.24 7.68 15.36 15.36 17.92 28.16 2.56 10.24 0 23.04-7.68 30.72-7.68 10.24-20.48 17.92-33.28 17.92-7.68 0-17.92-2.56-23.04-7.68l-7.68-5.12c-58.88-38.4-130.56-61.44-202.24-61.44-202.24 0-368.64 166.4-368.64 368.64 0 23.04-17.92 40.96-43.52 40.96zM478.72 84.48C355.84 84.48 256 184.32 256 307.2s99.84 222.72 222.72 222.72 222.72-99.84 222.72-222.72S601.6 84.48 478.72 84.48z m348.16 934.4c-23.04 0-40.96-17.92-40.96-40.96v-89.6h-97.28c-23.04 0-40.96-17.92-40.96-40.96s17.92-40.96 40.96-40.96h97.28v-89.6c0-20.48 17.92-38.4 38.4-38.4 23.04 0 40.96 17.92 40.96 40.96v89.6h92.16c23.04 0 40.96 17.92 40.96 40.96s-17.92 40.96-40.96 40.96h-92.16v92.16c0 17.92-17.92 35.84-38.4 35.84z" p-id="1891" fill="#777777"></path></svg>