<?xml version="1.0" standalone="no"?><!DOCTYPE svg PUBLIC "-//W3C//DTD SVG 1.1//EN" "http://www.w3.org/Graphics/SVG/1.1/DTD/svg11.dtd"><svg t="1587547928047" class="icon" viewBox="0 0 1024 1024" version="1.1" xmlns="http://www.w3.org/2000/svg" p-id="32436" xmlns:xlink="http://www.w3.org/1999/xlink" width="200" height="200"><defs><style type="text/css"></style></defs><path d="M115.2 622.08c-60.416 0-109.568-49.152-109.568-109.568S54.784 402.944 115.2 402.944c15.36 0 27.648 12.288 27.648 27.648S130.56 458.24 115.2 458.24c-30.208 0-54.784 24.576-54.784 54.784S84.992 568.32 115.2 568.32c15.36 0 27.648 12.288 27.648 27.648S130.56 622.08 115.2 622.08z m793.6 0c-15.36 0-27.648-12.288-27.648-27.648s12.288-27.648 27.648-27.648c30.208 0 55.296-24.576 55.296-55.296 0-30.208-24.576-54.784-55.296-54.784-15.36 0-27.648-12.288-27.648-27.648s12.288-27.648 27.648-27.648c60.416 0 109.568 49.152 109.568 109.568 0 61.44-49.152 111.104-109.568 111.104z" p-id="32437" fill="#2c2c2c"></path><path d="M514.048 922.624c-226.304 0-410.624-184.32-410.624-410.624s184.32-410.624 410.624-410.624S924.672 285.696 924.672 512 740.864 922.624 514.048 922.624z m0-766.464C317.952 156.16 158.72 315.904 158.72 512s159.744 355.84 355.84 355.84S870.4 708.096 870.4 512 710.656 156.16 514.048 156.16z" p-id="32438" fill="#2c2c2c"></path><path d="M624.64 474.624c-17.92 0-37.376-1.536-58.88-5.632-45.056-8.192-74.24-26.624-100.352-43.52-43.008-27.648-77.312-49.664-182.784-15.872-14.336 4.608-29.696-3.584-34.304-17.92s3.072-29.696 17.408-34.304c129.536-41.472 180.224-9.216 228.864 22.016 23.552 15.36 46.08 29.696 80.384 35.84 146.432 26.112 175.616-67.584 176.64-71.68 4.096-14.336 18.944-23.04 33.792-18.944 14.336 4.096 23.04 18.944 18.944 33.28 0.512 1.536-32.768 116.736-179.712 116.736z m-309.76 130.56c0 22.528 18.432 40.96 40.96 40.96s40.96-18.432 40.96-40.96-18.432-40.96-40.96-40.96c-22.528-0.512-40.96 17.92-40.96 40.96z m321.536 0c0 22.528 18.432 40.96 40.96 40.96s40.96-18.432 40.96-40.96-18.432-40.96-40.96-40.96c-22.528-0.512-40.96 17.92-40.96 40.96z" p-id="32439" fill="#2c2c2c"></path></svg>