<?xml version="1.0" standalone="no"?><!DOCTYPE svg PUBLIC "-//W3C//DTD SVG 1.1//EN" "http://www.w3.org/Graphics/SVG/1.1/DTD/svg11.dtd"><svg t="1587548093975" class="icon" viewBox="0 0 1024 1024" version="1.1" xmlns="http://www.w3.org/2000/svg" p-id="39548" xmlns:xlink="http://www.w3.org/1999/xlink" width="200" height="200"><defs><style type="text/css"></style></defs><path d="M813.4656 1010.8928C737.28 1010.8928 657.408 974.7456 594.432 911.36L148.3776 464.1792a123.6992 123.6992 0 0 1 2.7648-170.1888L404.1728 40.2432a85.2992 85.2992 0 0 1 82.6368-21.504 78.0288 78.0288 0 0 1 55.296 60.7232l10.24 48.2304a110.6944 110.6944 0 0 0 109.568 91.2384H696.32a65.9456 65.9456 0 0 1 29.2864 8.2944l3.072 1.4336 1.8432 1.8432a23.1424 23.1424 0 0 1 5.3248 4.7104 109.1584 109.1584 0 0 1 38.8096 57.2416l3.584 11.5712c1.6384 5.9392 3.2768 11.5712 5.0176 17.8176a1533.8496 1533.8496 0 0 0 71.68 207.7696c13.4144 33.5872 27.3408 64.3072 39.6288 91.136 5.8368 12.9024 11.3664 25.088 16.4864 36.6592l8.9088 19.5584c16.9984 37.2736 31.744 69.4272 42.3936 99.6352l1.1264 3.2768v4.608c0 0.9216 1.2288 2.7648 1.8432 3.9936l1.536 4.1984 1.2288 4.608a86.6304 86.6304 0 0 1 3.3792 17.92 165.4784 165.4784 0 0 1-46.7968 155.648 26.4192 26.4192 0 0 1-7.4752 5.12 29.3888 29.3888 0 0 1-6.8608 4.4032l-1.4336 1.024a35.6352 35.6352 0 0 0-4.096 3.1744l-1.7408 1.8432-2.1504 1.3312a174.08 174.08 0 0 1-87.4496 23.1424z m-634.88-574.3616l444.8256 446.0544c54.5792 54.6816 125.6448 87.3472 190.0544 87.3472a135.168 135.168 0 0 0 64.512-16.2816 68.3008 68.3008 0 0 1 7.2704-5.632l1.3312-1.024 6.0416-6.0416h1.8432l3.584-3.584h2.048a125.952 125.952 0 0 0 30.72-114.5856l-0.6144-2.4576v-2.4576a54.4768 54.4768 0 0 0-2.1504-10.24l-0.7168-2.8672a45.7728 45.7728 0 0 1-5.2224-17.7152c-10.24-27.648-23.8592-58.0608-39.8336-93.0816l-9.0112-19.8656c-5.12-11.5712-10.24-23.6544-16.384-36.352-12.3904-27.4432-26.5216-58.4704-40.96-92.16a1569.9968 1569.9968 0 0 1-72.192-212.7872c-1.6384-6.144-3.2768-11.776-4.7104-16.6912l-3.6864-11.3664a68.7104 68.7104 0 0 0-24.2688-36.6592h-1.3312l-2.2528-1.8432-7.68-5.0176a10.9568 10.9568 0 0 0-3.7888-0.8192h-34.4064A151.04 151.04 0 0 1 512 135.7824l-10.24-48.4352a36.5568 36.5568 0 0 0-26.3168-29.184 44.2368 44.2368 0 0 0-42.2912 11.0592L180.1216 322.9696a82.944 82.944 0 0 0-1.6384 113.5616z m717.824 504.7296z m67.072-157.184zM331.264 846.1312h-256a20.48 20.48 0 1 1 0-40.96h256a20.48 20.48 0 0 1 0 40.96z" fill="#2c2c2c" p-id="39549"></path><path d="M678.5024 532.48h-153.6a20.48 20.48 0 0 1 0-40.96h153.6a20.48 20.48 0 0 1 0 40.96zM732.2624 620.8512h-122.88a20.48 20.48 0 0 1 0-40.96h122.88a20.48 20.48 0 0 1 0 40.96zM784.384 709.5296h-102.4a20.48 20.48 0 0 1 0-40.96h102.4a20.48 20.48 0 0 1 0 40.96zM367.104 929.28h-204.8a20.48 20.48 0 1 1 0-40.96h204.8a20.48 20.48 0 0 1 0 40.96z" fill="#2c2c2c" p-id="39550"></path></svg>