<?xml version="1.0" standalone="no"?><!DOCTYPE svg PUBLIC "-//W3C//DTD SVG 1.1//EN" "http://www.w3.org/Graphics/SVG/1.1/DTD/svg11.dtd"><svg t="1587584537034" class="icon" viewBox="0 0 1024 1024" version="1.1" xmlns="http://www.w3.org/2000/svg" p-id="14711" xmlns:xlink="http://www.w3.org/1999/xlink" width="200" height="200"><defs><style type="text/css"></style></defs><path d="M478.854089 733.360574c12.867052 12.867052 33.724079 12.867052 46.590108 0l256.295224-256.295224c12.867052-12.867052 12.867052-33.723056 0-46.590108-12.883425-12.867052-33.739429-12.867052-46.606481 0L534.163789 631.445416 534.163789 74.857918c0-18.204617-14.744819-32.949436-32.949436-32.949436-18.204617 0-32.949436 14.744819-32.949436 32.949436l0 554.716894L269.165346 430.475242c-12.867052-12.867052-33.723056-12.867052-46.606481 0-12.867052 12.867052-12.867052 33.723056 0 46.590108L478.854089 733.360574z" p-id="14712" fill="#ffffff"></path><path d="M163.407674 881.456516c-18.191314 0-32.923854-14.732539-32.923854-32.923854 0 0 0-142.130068 0-148.155295 0-18.190291-14.733563-32.923854-32.923854-32.923854-18.191314 0-32.923854 14.733563-32.923854 32.923854 0 2.51938 0 181.079148 0 181.079148 0 36.364209 29.482475 65.846684 65.846684 65.846684l433.502182 0c-8.890484-20.72502-15.012925-42.8489-18.519796-65.846684L163.407674 881.456516z" p-id="14713" fill="#ffffff"></path><path d="M821.875536 618.068757c-100.004645 0-181.079148 81.07348-181.079148 181.079148s81.07348 181.079148 181.079148 181.079148c100.003622 0 181.079148-81.07348 181.079148-181.079148S921.879158 618.068757 821.875536 618.068757zM887.72222 782.685979l0 32.923854-32.923854 0L838.337463 815.609833l0 16.461927 49.384757 0 0 32.923854-49.384757 0 0 32.923854-32.923854 0 0-32.923854-49.384757 0 0-32.923854 49.384757 0 0-16.461927-49.384757 0 0-32.923854 32.923854 0-32.923854-82.308611 32.923854 0 32.923854 65.846684 32.923854-65.846684 32.923854 0-32.923854 82.308611L887.72222 782.685979z" p-id="14714" fill="#ffffff"></path></svg>