<?xml version="1.0" standalone="no"?><!DOCTYPE svg PUBLIC "-//W3C//DTD SVG 1.1//EN" "http://www.w3.org/Graphics/SVG/1.1/DTD/svg11.dtd"><svg t="1587584651232" class="icon" viewBox="0 0 1024 1024" version="1.1" xmlns="http://www.w3.org/2000/svg" p-id="17326" xmlns:xlink="http://www.w3.org/1999/xlink" width="200" height="200"><defs><style type="text/css"></style></defs><path d="M279.68469707 460.37387047c-28.50959265 0-51.62547839 23.10741836-51.62547838 51.62612953 0 28.50177642 23.1152346 51.62547839 51.62547838 51.62547839 28.51024378 0 51.62612953-23.12370197 51.62612953-51.62547839C331.31082659 483.48128885 308.19559199 460.37387047 279.68469707 460.37387047zM511.99967412 460.37387047c-28.50959265 0-51.62547839 23.10741836-51.6254784 51.62612953 0 28.50177642 23.1152346 51.62547839 51.62547839 51.62547839 28.51024378 0 51.62612953-23.12370197 51.62612954-51.62547839C563.62580365 483.48128885 540.50991789 460.37387047 511.99967412 460.37387047zM744.31465178 460.37387047c-28.50959265 0-51.62547839 23.10741836-51.62547837 51.62612953 0 28.50177642 23.1152346 51.62547839 51.62547837 51.62547839s51.62547839-23.12370197 51.6254784-51.62547839C795.9394784 483.48128885 772.8242438 460.37387047 744.31465178 460.37387047z" p-id="17327" fill="#ffffff"></path></svg>