<?xml version="1.0" standalone="no"?><!DOCTYPE svg PUBLIC "-//W3C//DTD SVG 1.1//EN" "http://www.w3.org/Graphics/SVG/1.1/DTD/svg11.dtd"><svg t="1587584635850" class="icon" viewBox="0 0 1024 1024" version="1.1" xmlns="http://www.w3.org/2000/svg" p-id="16530" xmlns:xlink="http://www.w3.org/1999/xlink" width="200" height="200"><defs><style type="text/css"></style></defs><path d="M870.505567 421.87609c-16.375755-0.572579-30.232163 12.253187-30.804742 28.628942-0.114516 2.404831-0.458063 7.443525-1.145157 14.658019-1.259673 12.367703-3.091926 26.109595-5.95482 41.111161-7.901588 42.599866-20.84187 85.085216-39.851488 124.593155C739.385012 741.260568 649.948197 806.191009 511.956696 806.191009c-138.220532 0-227.657347-63.899799-280.907179-172.575263-19.009618-38.70633-31.949899-80.619101-39.736972-122.417356-2.748378-14.658018-4.695146-28.285395-5.840304-40.424067-0.687095-7.099978-1.030642-12.024156-1.145158-14.314471-0.572579-16.375755-14.428987-29.201521-30.804741-28.628942C137.032071 428.288973 124.206305 442.145381 124.778884 458.521136c0.458063 13.169313 2.748378 35.385372 8.016104 63.556252 8.817714 46.836949 23.246701 93.673898 44.890181 137.647953 58.17401 118.638336 156.314024 194.333259 300.031313 204.639678v100.086781H270.671973c-16.375755 0-29.7741 13.283829-29.7741 29.7741 0 16.375755 13.283829 29.7741 29.7741 29.7741h478.103332c16.375755 0 29.7741-13.283829 29.7741-29.7741 0-16.375755-13.283829-29.7741-29.7741-29.7741H537.150165v-99.514202c148.755983-7.787072 249.873406-85.314247 309.192575-208.304183 21.528964-44.66115 35.957951-92.185193 44.775665-139.594721 5.267725-28.514426 7.558041-50.959517 8.016104-64.357862 0.572579-16.490271-12.253187-30.232163-28.628942-30.804742z" p-id="16531" fill="#ffffff"></path><path d="M507.490581 713.662268c120.241557 0 218.038023-97.567435 218.038023-218.038023V218.038023C725.528604 97.68195 627.96117 0 507.490581 0c-120.241557 0-218.038023 97.567435-218.038022 218.038023v277.700738c0 120.127041 97.567435 217.923507 218.038022 217.923507zM348.886242 218.038023C348.886242 130.547976 420.000534 59.5482 507.490581 59.5482s158.604339 71.114292 158.604339 158.489823v277.700738c0 87.490047-71.114292 158.489823-158.604339 158.489823s-158.604339-71.114292-158.604339-158.489823V218.038023z" p-id="16532" fill="#ffffff"></path><path d="M870.505567 421.87609c-16.375755-0.572579-30.232163 12.253187-30.804742 28.628942-0.114516 2.404831-0.458063 7.443525-1.145157 14.658019-1.259673 12.367703-3.091926 26.109595-5.95482 41.111161-7.901588 42.599866-20.84187 85.085216-39.851488 124.593155C739.385012 741.260568 649.948197 806.191009 511.956696 806.191009c-138.220532 0-227.657347-63.899799-280.907179-172.575263-19.009618-38.70633-31.949899-80.619101-39.736972-122.417356-2.748378-14.658018-4.695146-28.285395-5.840304-40.424067-0.687095-7.099978-1.030642-12.024156-1.145158-14.314471-0.572579-16.375755-14.428987-29.201521-30.804741-28.628942C137.032071 428.288973 124.206305 442.145381 124.778884 458.521136c0.458063 13.169313 2.748378 35.385372 8.016104 63.556252 8.817714 46.836949 23.246701 93.673898 44.890181 137.647953 58.17401 118.638336 156.314024 194.333259 300.031313 204.639678v100.086781H270.671973c-16.375755 0-29.7741 13.283829-29.7741 29.7741 0 16.375755 13.283829 29.7741 29.7741 29.7741h478.103332c16.375755 0 29.7741-13.283829 29.7741-29.7741 0-16.375755-13.283829-29.7741-29.7741-29.7741H537.150165v-99.514202c148.755983-7.787072 249.873406-85.314247 309.192575-208.304183 21.528964-44.66115 35.957951-92.185193 44.775665-139.594721 5.267725-28.514426 7.558041-50.959517 8.016104-64.357862 0.572579-16.490271-12.253187-30.232163-28.628942-30.804742z" p-id="16533" fill="#ffffff"></path><path d="M507.490581 713.662268c120.241557 0 218.038023-97.567435 218.038023-218.038023V218.038023C725.528604 97.68195 627.96117 0 507.490581 0c-120.241557 0-218.038023 97.567435-218.038022 218.038023v277.700738c0 120.127041 97.567435 217.923507 218.038022 217.923507zM348.886242 218.038023C348.886242 130.547976 420.000534 59.5482 507.490581 59.5482s158.604339 71.114292 158.604339 158.489823v277.700738c0 87.490047-71.114292 158.489823-158.604339 158.489823s-158.604339-71.114292-158.604339-158.489823V218.038023z" p-id="16534" fill="#ffffff"></path></svg>