<?xml version="1.0" standalone="no"?><!DOCTYPE svg PUBLIC "-//W3C//DTD SVG 1.1//EN" "http://www.w3.org/Graphics/SVG/1.1/DTD/svg11.dtd"><svg t="1587584520658" class="icon" viewBox="0 0 1024 1024" version="1.1" xmlns="http://www.w3.org/2000/svg" p-id="14367" xmlns:xlink="http://www.w3.org/1999/xlink" width="200" height="200"><defs><style type="text/css"></style></defs><path d="M512 502.4c35.2 0 64-28.8 64-64s-28.8-64-64-64-64 28.8-64 64 28.8 64 64 64z m220.8 0c35.2 0 64-28.8 64-64 0-16-6.4-32-19.2-44.8-12.8-12.8-28.8-19.2-44.8-19.2-35.2 0-64 28.8-64 64s28.8 64 64 64z" p-id="14368" fill="#ffffff"></path><path d="M841.6 70.4H182.4c-80 0-147.2 64-147.2 147.2v409.6c0 83.2 70.4 153.6 150.4 153.6h150.4l137.6 137.6c9.6 9.6 22.4 16 38.4 16s28.8-6.4 38.4-16c25.6-25.6 86.4-92.8 131.2-137.6h153.6c83.2 0 150.4-70.4 150.4-153.6V217.6c3.2-80-64-147.2-144-147.2zM96 217.6C96 179.2 144 128 182.4 128h659.2c38.4 0 89.6 48 89.6 89.6v409.6c0 41.6-51.2 89.6-89.6 89.6h-182.4l-12.8 6.4C595.2 768 544 828.8 512 864c-38.4-38.4-108.8-118.4-128-140.8l-12.8-6.4H185.6C144 716.8 96 672 96 630.4V217.6z" p-id="14369" fill="#ffffff"></path><path d="M291.2 502.4c35.2 0 64-28.8 64-64s-28.8-64-64-64-64 28.8-64 64 28.8 64 64 64z" p-id="14370" fill="#ffffff"></path></svg>