<?xml version="1.0" standalone="no"?><!DOCTYPE svg PUBLIC "-//W3C//DTD SVG 1.1//EN" "http://www.w3.org/Graphics/SVG/1.1/DTD/svg11.dtd"><svg t="1587584397526" class="icon" viewBox="0 0 1024 1024" version="1.1" xmlns="http://www.w3.org/2000/svg" p-id="6986" xmlns:xlink="http://www.w3.org/1999/xlink" width="200" height="200"><defs><style type="text/css"></style></defs><path d="M804.587386 515.688755c-11.761825 0-21.293763 9.535135-21.293763 21.293763l0 201.319705c0 25.833485-21.016951 46.851435-46.850435 46.851435L287.082654 785.153658c-25.833485 0-46.846438-21.01795-46.846438-46.851435l0-422.738583c0-25.833485 21.012953-46.846438 46.846438-46.846438l146.470893 0c11.757628 0 21.292764-9.535135 21.292764-21.29796 0-11.758628-9.535135-21.293763-21.292764-21.293763l-146.470893 0c-49.314365 0-89.437961 40.120598-89.437961 89.437961l0 422.738583c0 49.318562 40.123796 89.437961 89.437961 89.437961l449.360733 0c49.318562 0 89.437961-40.119399 89.437961-89.437961L825.881348 536.982518C825.881149 525.22389 816.35041 515.688755 804.587386 515.688755L804.587386 515.688755zM357.714566 640.471352c-2.117364 11.571355 5.543841 22.667232 17.110999 24.784596 1.296521 0.23624 2.585647 0.349763 3.861382 0.349763 10.080366 0 19.038092-7.189725 20.920216-17.460562 0.16229-0.894793 17.057835-90.454672 75.862765-179.494103 34.2178-51.81367 75.683686-93.015336 123.245839-122.465568 45.395822-28.110141 96.705034-45.607078 153.051031-52.280954l-69.327396 71.525905c-8.18565 8.445674-7.974393 21.927533 0.47128 30.112983 4.133797 4.008083 9.477774 6.003729 14.814556 6.003729 5.564627 0 11.12086-2.166331 15.294231-6.47501l107.33043-110.731924c0.077148-0.081145 0.149898-0.166287 0.227846-0.251829 0.109326-0.113523 0.218452-0.232043 0.32478-0.349563 0.11752-0.130112 0.232043-0.264421 0.349563-0.39853 0.016589-0.019787 0.032378-0.040572 0.048967-0.056162 0.105129-0.130112 0.211257-0.255827 0.317385-0.385938 0.113323-0.138506 0.226846-0.281009 0.332974-0.423513 0.105129-0.134309 0.203062-0.268418 0.304793-0.401528 0.11752-0.163489 0.235241-0.329776 0.349563-0.492066 0.072751-0.110325 0.149898-0.223848 0.223648-0.333174 0.072951-0.110325 0.149898-0.219451 0.218652-0.333974 0.024983-0.036375 0.048967-0.081145 0.077947-0.121717 0.015589-0.027981 0.036575-0.061358 0.053164-0.093736 0.068753-0.105129 0.13331-0.215254 0.198865-0.32458 0.109326-0.19147 0.219651-0.378743 0.32478-0.565017 0.061358-0.110325 0.11852-0.219451 0.174881-0.325579 0.020786-0.040572 0.04477-0.081145 0.065556-0.121717 0.077148-0.154096 0.158293-0.308991 0.235241-0.463086 0.061358-0.130112 0.122717-0.260224 0.183076-0.390335 0.085342-0.178879 0.166487-0.35376 0.244434-0.536836 0.064556-0.145701 0.121717-0.292402 0.182276-0.443299 0.069753-0.166487 0.134109-0.333174 0.199665-0.499461 0.060359-0.166487 0.121717-0.332974 0.179079-0.500461 0.051965-0.154096 0.105129-0.307991 0.154096-0.458889 0.061358-0.183076 0.11752-0.369549 0.170684-0.552625 0.040772-0.146701 0.081345-0.289204 0.121917-0.434905 0.053164-0.19147 0.101931-0.385938 0.146701-0.581606 0.027981-0.11772 0.057361-0.235241 0.085342-0.35396 0.008394-0.032178 0.012591-0.068554 0.020786-0.100932 0.040572-0.183076 0.076948-0.370549 0.113323-0.556623 0.019787-0.106128 0.040572-0.215454 0.061358-0.321582 0.011392-0.085342 0.023984-0.166487 0.040572-0.251829 0.019787-0.146701 0.040572-0.292402 0.064556-0.439102 0.012591-0.093736 0.027981-0.19147 0.040572-0.288404 0.016589-0.138306 0.032178-0.272415 0.048967-0.410921 0.008394-0.081145 0.012591-0.16229 0.020786-0.239238 0.007195-0.07395 0.01539-0.142503 0.019587-0.215454 0.004197-0.041572 0.008394-0.082144 0.012591-0.122717 0.012591-0.186274 0.023984-0.36935 0.036375-0.556623 0-0.027981 0-0.057361 0.004197-0.085342 0.004197-0.113523 0.008394-0.228045 0.012392-0.341369 0 0 0-0.008394 0.003198-0.012392 0.004197-0.226846 0.008394-0.450495 0.008394-0.67834l0-0.008394 0-0.015589c0-0.349563-0.008394-0.695129-0.023984-1.044692-0.004197-0.02898-0.004197-0.057161-0.008394-0.085342-0.004197-0.065556-0.004197-0.130112-0.008394-0.19147 0-0.008394 0-0.016589 0-0.016589-0.015589-0.247632-0.036575-0.48707-0.060359-0.727307-0.008394-0.072751-0.016589-0.145701-0.024983-0.215454l0-0.003997c-0.004197-0.036375-0.004197-0.072751-0.008394-0.109326-0.028381-0.219451-0.056162-0.439102-0.089539-0.658554-0.011392-0.093736-0.023984-0.19147-0.040572-0.285007-0.004197-0.040572-0.011392-0.076948-0.019787-0.11752-0.028181-0.186274-0.065556-0.369549-0.097934-0.552425-0.023784-0.121717-0.048967-0.243635-0.072751-0.362154 0-0.019787-0.008394-0.036375-0.012591-0.052165-0.008194-0.041572-0.016589-0.077947-0.023784-0.114522-0.02918-0.138306-0.061558-0.272615-0.093736-0.405725-0.053164-0.223648-0.110325-0.447297-0.170684-0.671145-0.024983-0.085342-0.048767-0.170684-0.07375-0.255827-0.072951-0.260224-0.154096-0.520247-0.239438-0.776274-0.016589-0.048967-0.032378-0.097934-0.048967-0.146701-0.061358-0.183076-0.11752-0.365152-0.187273-0.548428-0.007395-0.020786-0.015589-0.040572-0.023984-0.061558-0.027981-0.081145-0.061358-0.158093-0.093537-0.235041-0.008394-0.02898-0.019787-0.053164-0.032378-0.081145-0.072751-0.19147-0.146701-0.38294-0.223648-0.569214-0.04477-0.106128-0.097734-0.211257-0.142703-0.317385-0.004197-0.008194-0.008394-0.016589-0.008394-0.016589-0.08834-0.198665-0.170684-0.390335-0.263222-0.580606 0 0-0.004197-0.008194-0.004197-0.012392-0.199665-0.414319-0.419316-0.821043-0.646162-1.22357l0-0.004197c-0.163289-0.288205-0.333974-0.572212-0.508855-0.857219-0.019587-0.028181-0.040572-0.057161-0.055962-0.085342-0.101931-0.158293-0.204062-0.320583-0.308991-0.479675l-0.020986-0.027981c-0.053164-0.076948-0.104929-0.155095-0.16229-0.23624-0.057161-0.081145-0.121717-0.166487-0.183276-0.251829-0.04477-0.061558-0.089339-0.125915-0.134109-0.187273-0.04477-0.060359-0.085342-0.121717-0.129912-0.178079-0.04497-0.061358-0.089539-0.122717-0.138506-0.183076-0.109126-0.146701-0.226846-0.289204-0.341169-0.430708-0.060359-0.07395-0.11772-0.146701-0.179079-0.219651-0.032378-0.04457-0.068753-0.085142-0.100932-0.130112-0.146701-0.166487-0.296599-0.333974-0.443299-0.500461-0.040772-0.04477-0.077148-0.089539-0.11752-0.130112-0.204062-0.226846-0.415318-0.446297-0.630572-0.661751-0.015789-0.020786-0.036575-0.037375-0.056362-0.057161-0.227646-0.227846-0.459888-0.451694-0.699126-0.671145-0.012591-0.007195-0.020786-0.015589-0.02898-0.023984-0.243435-0.219451-0.48707-0.430908-0.739698-0.637967-0.011592-0.012392-0.027981-0.024983-0.040572-0.037375-0.239238-0.194668-0.483672-0.386138-0.731504-0.572412-0.032178-0.024983-0.064556-0.052964-0.100932-0.077947-0.223648-0.166487-0.451494-0.32458-0.683537-0.482873-0.064556-0.048967-0.130112-0.093736-0.198865-0.138306-0.113323-0.076948-0.227846-0.155095-0.345566-0.227846-0.089539-0.061358-0.183276-0.113523-0.276812-0.170684-0.105129-0.065556-0.207259-0.130112-0.313188-0.19147-0.092537-0.056162-0.182077-0.113323-0.275613-0.166487-0.102131-0.056162-0.202862-0.109326-0.304793-0.166487-0.121717-0.068753-0.247632-0.134309-0.370549-0.198865-0.177879-0.097734-0.356958-0.187473-0.535837-0.276812-0.138506-0.068554-0.277012-0.130112-0.415119-0.194668-0.170684-0.082144-0.341369-0.159092-0.512053-0.232043-0.154096-0.069753-0.313188-0.134309-0.47128-0.195667-0.153896-0.064556-0.313188-0.130112-0.47128-0.186274-0.174881-0.069753-0.349763-0.130112-0.528642-0.19147-0.142503-0.053164-0.288205-0.101931-0.430708-0.146701-0.093736-0.032178-0.183076-0.060359-0.276812-0.08854l-156.313819-51.821865c-11.16563-3.702889-23.216659 2.349607-26.914552 13.50984-3.703089 11.16563 2.349407 23.212462 13.50984 26.914552l62.868975 20.843268c-46.212668 9.98583-89.092595 27.146595-128.204877 51.361977-52.841573 32.722614-98.721267 78.207975-136.362346 135.203332C376.386306 541.396325 358.44607 636.471664 357.714566 640.471352L357.714566 640.471352z" p-id="6987" fill="#ffffff"></path></svg>