<?xml version="1.0" standalone="no"?><!DOCTYPE svg PUBLIC "-//W3C//DTD SVG 1.1//EN" "http://www.w3.org/Graphics/SVG/1.1/DTD/svg11.dtd"><svg t="1587701239705" class="icon" viewBox="0 0 1024 1024" version="1.1" xmlns="http://www.w3.org/2000/svg" p-id="7529" xmlns:xlink="http://www.w3.org/1999/xlink" width="200" height="200"><defs><style type="text/css"></style></defs><path d="M472.007111 33.792c-39.367111 118.954667-93.923556 207.758222-163.726222 266.467556C198.940444 392.192 142.222222 530.204444 142.222222 646.087111c0 115.484444 83.342222 349.468444 360.106667 349.468445 276.707556 0 379.448889-233.870222 379.448889-349.468445 0-127.658667-27.022222-140.970667-65.308445-225.678222-11.662222-25.827556-33.962667-73.671111-66.787555-143.530667l-4.949334 2.275556a4.551111 4.551111 0 0 0-8.590222 1.479111c-10.695111 107.804444-43.804444 160.540444-99.271111 158.208-63.032889-2.616889-32.995556-125.553778-34.588444-186.083556-1.820444-67.697778-39.651556-141.880889-113.436445-222.549333a10.012444 10.012444 0 0 0-16.839111 3.584z" p-id="7530" fill="#ffffff"></path></svg>