<?xml version="1.0" encoding="utf-8"?>
<svg version="1.1" xmlns:xlink="http://www.w3.org/1999/xlink" width="13px" height="8px" xmlns="http://www.w3.org/2000/svg">
  <g transform="matrix(1 0 0 1 -58 -13 )">
    <path d="M 7.11558044806517 7.57849462365591  C 6.79344874405975 7.8594982078853  6.58825526137135 8  6.5 8  C 6.41174473862865 8  6.20655125594025 7.8594982078853  5.88441955193483 7.57849462365591  C 5.5622878479294 7.29749103942654  5.40122199592668 7.11875746714456  5.40122199592668 7.04229390681005  C 5.40122199592668 6.91995221027478  5.53912084181943 6.81672640382317  5.81491853360489 6.7326164874552  C 6.09071622539036 6.64850657108721  6.31907671418873 6.60645161290322  6.5 6.60645161290322  C 6.68092328581128 6.60645161290322  6.90928377460964 6.64850657108721  7.18508146639511 6.7326164874552  C 7.46087915818059 6.81672640382317  7.59877800407332 6.91995221027478  7.59877800407332 7.04229390681005  C 7.59877800407332 7.11875746714456  7.4377121520706 7.29749103942654  7.11558044806517 7.57849462365591  Z M 8.90605906313645 6.015770609319  C 8.57289545145961 6.30250896057348  8.36659877800408 6.44587813620071  8.28716904276986 6.44587813620071  C 8.27834351663272 6.44587813620071  8.19008825526137 6.39808841099164  8.02240325865581 6.30250896057348  C 7.85471826205024 6.20692951015531  7.63077053632044 6.11135005973715  7.3505600814664 6.015770609319  C 7.07034962661236 5.92019115890084  6.78682959945689 5.87240143369174  6.5 5.87240143369174  C 6.21317040054311 5.87240143369174  5.92965037338764 5.92019115890084  5.6494399185336 6.015770609319  C 5.36922946367956 6.11135005973715  5.14638492871691 6.20692951015531  4.98090631364563 6.30250896057348  C 4.81542769857434 6.39808841099164  4.72606924643584 6.44587813620071  4.71283095723014 6.44587813620071  C 4.63340122199592 6.44587813620071  4.42710454854039 6.30250896057348  4.09394093686355 6.015770609319  C 3.76077732518669 5.72903225806451  3.59419551934827 5.55125448028675  3.59419551934827 5.48243727598565  C 3.59419551934827 5.43273596176823  3.61625933469111 5.38876941457586  3.66038696537678 5.3505376344086  C 4.00458248472505 5.05615292712066  4.43703326544467 4.82485065710873  4.95773930753565 4.65663082437277  C 5.47844534962662 4.48841099163681  5.99253224711474 4.40430107526884  6.5 4.40430107526884  C 7.00746775288527 4.40430107526884  7.52155465037338 4.48841099163681  8.04226069246435 4.65663082437277  C 8.56296673455533 4.82485065710873  8.99541751527495 5.05615292712066  9.33961303462321 5.3505376344086  C 9.38374066530889 5.38876941457586  9.40580448065174 5.43273596176823  9.40580448065174 5.48243727598565  C 9.40580448065174 5.55125448028675  9.23922267481331 5.72903225806451  8.90605906313645 6.015770609319  Z M 10.7031568228106 4.45591397849462  C 10.372199592668 4.7426523297491  10.1692124915139 4.88602150537636  10.0941955193483 4.88602150537636  C 10.045655125594 4.88602150537636  9.99490835030549 4.87072879330942  9.94195519348268 4.84014336917562  C 9.34181941615751 4.43870967741937  8.78581126951799 4.14336917562723  8.27393075356416 3.95412186379926  C 7.76205023761032 3.76487455197134  7.17073998642226 3.67025089605734  6.5 3.67025089605734  C 6.12491513917175 3.67025089605734  5.74872708757638 3.71230585424134  5.37143584521385 3.79641577060934  C 4.99414460285133 3.88052568697731  4.66539375424304 3.98183990442053  4.38518329938901 4.10035842293908  C 4.10497284453496 4.2188769414576  3.85454854039375 4.3373954599761  3.63391038696538 4.45591397849462  C 3.413272233537 4.57443249701314  3.23896809232858 4.67574671445639  3.11099796334013 4.75985663082436  C 2.98302783435166 4.84396654719235  2.91463000678887 4.88602150537636  2.90580448065173 4.88602150537636  C 2.83078750848608 4.88602150537636  2.62780040733198 4.7426523297491  2.29684317718941 4.45591397849462  C 1.96588594704684 4.16917562724013  1.80040733197556 3.99139784946237  1.80040733197556 3.92258064516129  C 1.80040733197556 3.87670250896058  1.8224711473184 3.83464755077657  1.86659877800408 3.79641577060934  C 2.44908350305499 3.29175627240143  3.1551255940258 2.89988052568697  3.9847250509165 2.62078853046594  C 4.81432450780719 2.34169653524491  5.65274949083503 2.20215053763441  6.5 2.20215053763441  C 7.34725050916497 2.20215053763441  8.18567549219281 2.34169653524491  9.0152749490835 2.62078853046594  C 9.84487440597421 2.89988052568697  10.550916496945 3.29175627240143  11.1334012219959 3.79641577060934  C 11.1775288526816 3.83464755077657  11.1995926680244 3.87670250896058  11.1995926680244 3.92258064516129  C 11.1995926680244 3.99139784946237  11.0341140529532 4.16917562724013  10.7031568228106 4.45591397849462  Z M 12.5002545824847 2.90179211469533  C 12.1670909708079 3.18853046594982  11.9630006788866 3.33189964157707  11.887983706721 3.33189964157707  C 11.8394433129667 3.33189964157707  11.7909029192125 3.31469534050179  11.7423625254582 3.28028673835124  C 10.9524779361847 2.6800477897252  10.1328071961982 2.22795698924731  9.28335030549898 1.92401433691755  C 8.43389341479973 1.62007168458781  7.50610997963339 1.46810035842295  6.5 1.46810035842295  C 5.49389002036661 1.46810035842295  4.56610658520027 1.62007168458781  3.71664969450102 1.92401433691755  C 2.86719280380176 2.22795698924731  2.04752206381534 2.6800477897252  1.25763747454175 3.28028673835124  C 1.20909708078751 3.31469534050179  1.16055668703326 3.33189964157707  1.11201629327902 3.33189964157707  C 1.03699932111337 3.33189964157707  0.832909029192123 3.18853046594982  0.499745417515278 2.90179211469533  C 0.166581805838426 2.61505376344085  0 2.43727598566309  0 2.36845878136201  C 0 2.31875746714454  0.0220638153428396 2.27479091995222  0.0661914460285118 2.23655913978494  C 0.891378139850644 1.52544802867383  1.87321792260693 0.974910394265226  3.01171079429735 0.584946236559131  C 4.15020366598778 0.194982078853036  5.31296673455533 0  6.5 0  C 7.68703326544467 0  8.84979633401222 0.194982078853036  9.98828920570266 0.584946236559131  C 11.1267820773931 0.974910394265226  12.1086218601494 1.52544802867383  12.9338085539715 2.23655913978494  C 12.9779361846572 2.27479091995222  13 2.31875746714454  13 2.36845878136201  C 13 2.43727598566309  12.8334181941616 2.61505376344085  12.5002545824847 2.90179211469533  Z " fill-rule="nonzero" fill="#000000" stroke="none" transform="matrix(1 0 0 1 58 13 )" />
  </g>
</svg>