<?xml version="1.0" encoding="utf-8"?>
<svg version="1.1" xmlns:xlink="http://www.w3.org/1999/xlink" width="18px" height="8px" xmlns="http://www.w3.org/2000/svg">
  <g transform="matrix(1 0 0 1 -340 -13 )">
    <path d="M 2 1.6  L 15 1.6  L 15 6.4  L 2 6.4  L 2 1.6  Z M 16 7  L 16 5.2  L 17 5.2  L 17 2.8  L 16 2.8  L 16 1  C 16 0.941666666666674  15.9765625 0.89375  15.9296875 0.85625  C 15.8828125 0.81875  15.8229166666667 0.8  15.75 0.8  L 1.25 0.8  C 1.17708333333333 0.8  1.1171875 0.81875  1.0703125 0.85625  C 1.0234375 0.89375  1 0.941666666666674  1 1  L 1 7  C 1 7.05833333333333  1.0234375 7.10625  1.0703125 7.14375  C 1.1171875 7.18125  1.17708333333333 7.2  1.25 7.2  L 15.75 7.2  C 15.8229166666667 7.2  15.8828125 7.18125  15.9296875 7.14375  C 15.9765625 7.10625  16 7.05833333333333  16 7  Z M 17.70703125 2.234375  C 17.90234375 2.390625  18 2.57916666666667  18 2.8  L 18 5.2  C 18 5.42083333333333  17.90234375 5.609375  17.70703125 5.765625  C 17.51171875 5.921875  17.2760416666667 6  17 6  L 17 7  C 17 7.275  16.8776041666667 7.51041666666667  16.6328125 7.70625  C 16.3880208333333 7.90208333333333  16.09375 8  15.75 8  L 1.25 8  C 0.90625 8  0.611979166666671 7.90208333333333  0.3671875 7.70625  C 0.122395833333329 7.51041666666667  0 7.275  0 7  L 0 1  C 0 0.725  0.122395833333329 0.489583333333326  0.3671875 0.29375  C 0.611979166666671 0.0979166666666742  0.90625 0  1.25 0  L 15.75 0  C 16.09375 0  16.3880208333333 0.0979166666666742  16.6328125 0.29375  C 16.8776041666667 0.489583333333326  17 0.725  17 1  L 17 2  C 17.2760416666667 2  17.51171875 2.078125  17.70703125 2.234375  Z " fill-rule="nonzero" fill="#000000" stroke="none" transform="matrix(1 0 0 1 340 13 )" />
  </g>
</svg>