<?xml version="1.0" standalone="no"?><!DOCTYPE svg PUBLIC "-//W3C//DTD SVG 1.1//EN" "http://www.w3.org/Graphics/SVG/1.1/DTD/svg11.dtd"><svg t="1587701034971" class="icon" viewBox="0 0 1024 1024" version="1.1" xmlns="http://www.w3.org/2000/svg" p-id="3368" xmlns:xlink="http://www.w3.org/1999/xlink" width="200" height="200"><defs><style type="text/css"></style></defs><path d="M150.632704 1017.7024a46.2336 46.2336 0 0 0 45.7728-46.7968l0-378.1632a147.2512 147.2512 0 0 0 17.408 12.6464L843.215104 1003.8272C914.434304 1048.9344 972.802304 1015.808 972.802304 929.9456L972.802304 92.67199999c0-85.7088-57.7024-117.76-128.20480001-71.42399999l-632.42239999 417.4848c-5.632 3.7376-10.9056 7.8848-15.7696 12.032l0-397.6704c0-25.85599999-20.48-46.7456-45.77280001-46.7456l-53.65759999 0a46.2336 46.2336 0 0 0-45.7728 46.7456L51.202304 970.9056c0 25.9072 20.48 46.7968 45.7728 46.7968l53.6576 0z" p-id="3369" fill="#ffffff"></path></svg>