<?xml version="1.0" standalone="no"?><!DOCTYPE svg PUBLIC "-//W3C//DTD SVG 1.1//EN" "http://www.w3.org/Graphics/SVG/1.1/DTD/svg11.dtd"><svg t="1587701038870" class="icon" viewBox="0 0 1024 1024" version="1.1" xmlns="http://www.w3.org/2000/svg" p-id="3551" xmlns:xlink="http://www.w3.org/1999/xlink" width="200" height="200"><defs><style type="text/css"></style></defs><path d="M873.367 6.298a46.234 46.234 0 0 0-45.773 46.796v378.164a147.251 147.251 0 0 0-17.408-12.647L180.785 20.173C109.565-24.934 51.198 8.192 51.198 94.054v837.274c0 85.709 57.702 117.76 128.204 71.424l632.423-417.485c5.632-3.737 10.905-7.885 15.77-12.032v397.67c0 25.857 20.48 46.746 45.772 46.746h53.658a46.234 46.234 0 0 0 45.773-46.745V53.094c0-25.907-20.48-46.796-45.773-46.796h-53.658z" p-id="3552" fill="#ffffff"></path></svg>