<?xml version="1.0" standalone="no"?><!DOCTYPE svg PUBLIC "-//W3C//DTD SVG 1.1//EN" "http://www.w3.org/Graphics/SVG/1.1/DTD/svg11.dtd"><svg t="1587583336342" class="icon" viewBox="0 0 1024 1024" version="1.1" xmlns="http://www.w3.org/2000/svg" p-id="2635" xmlns:xlink="http://www.w3.org/1999/xlink" width="200" height="200"><defs><style type="text/css"></style></defs><path d="M512 1024A512 512 0 1 1 512 0a512 512 0 0 1 0 1024z m0-76.8A435.2 435.2 0 1 0 512 76.8a435.2 435.2 0 0 0 0 870.4zM377.6 345.6h38.4a19.2 19.2 0 0 1 19.2 19.2v294.4a19.2 19.2 0 0 1-19.2 19.2h-38.4a19.2 19.2 0 0 1-19.2-19.2V364.8a19.2 19.2 0 0 1 19.2-19.2z m230.4 0h38.4a19.2 19.2 0 0 1 19.2 19.2v294.4a19.2 19.2 0 0 1-19.2 19.2h-38.4a19.2 19.2 0 0 1-19.2-19.2V364.8a19.2 19.2 0 0 1 19.2-19.2z" p-id="2636" fill="#22d59d"></path></svg>