<?xml version="1.0" standalone="no"?><!DOCTYPE svg PUBLIC "-//W3C//DTD SVG 1.1//EN" "http://www.w3.org/Graphics/SVG/1.1/DTD/svg11.dtd"><svg t="1587583323976" class="icon" viewBox="0 0 1024 1024" version="1.1" xmlns="http://www.w3.org/2000/svg" p-id="1902" xmlns:xlink="http://www.w3.org/1999/xlink" width="200" height="200"><defs><style type="text/css"></style></defs><path d="M512 19.627c-272.356 0-493.796 221.44-493.796 493.795S239.644 1007.218 512 1007.218s493.796-221.44 493.796-493.796S784.356 19.627 512 19.627z m0 916.764c-233.244 0-422.969-189.724-422.969-422.969S278.756 90.453 512 90.453s422.969 189.725 422.969 422.97S745.244 936.39 512 936.39z m0 0" p-id="1903" fill="#22d59d"></path><path d="M376.036 653.938c0 38.969 27.733 54.898 61.297 35.413l243.2-140.373c33.707-19.485 33.707-51.342 0-70.827l-243.2-140.515c-33.706-19.485-61.297-3.556-61.297 35.413v280.889z m0 0" p-id="1904" fill="#22d59d"></path></svg>