<?xml version="1.0" standalone="no"?><!DOCTYPE svg PUBLIC "-//W3C//DTD SVG 1.1//EN" "http://www.w3.org/Graphics/SVG/1.1/DTD/svg11.dtd"><svg t="1587584754249" class="icon" viewBox="0 0 1024 1024" version="1.1" xmlns="http://www.w3.org/2000/svg" p-id="18105" xmlns:xlink="http://www.w3.org/1999/xlink" width="200" height="200"><defs><style type="text/css"></style></defs><path d="M705.432 115.399c-95.588 0-163.984 86.445-193.551 132.161-29.449-45.716-97.844-132.161-193.432-132.161-137.148 0-248.647 124.086-248.647 276.552 0 71.364 48.21 173.602 106.631 227.037 80.863 104.375 308.257 292.345 336.399 292.345 28.618 0 251.022-184.17 333.431-290.92C905.753 565.911 954.2 463.554 954.2 392.071c-0.119-152.584-111.618-276.672-248.767-276.672z m190.107 276.552c0 56.997-41.204 142.136-89.889 185.832-1.306 1.187-2.494 2.611-3.8 4.037-72.434 94.757-218.369 212.431-288.902 263.847-52.365-38.591-210.294-158.522-291.277-264.322-1.069-1.425-2.375-2.731-3.681-4.037-48.566-43.697-89.532-128.48-89.532-185.477 0-120.049 85.257-217.775 189.989-217.775 67.565 0 132.636 73.383 167.071 146.173 4.631 9.619 14.724 15.674 26.48 15.674s21.849-6.056 26.48-15.674c34.436-72.79 99.388-146.173 167.071-146.173 104.731 0.119 189.989 97.844 189.989 217.893z" p-id="18106" fill="#ffffff"></path></svg>