<?xml version="1.0" standalone="no"?><!DOCTYPE svg PUBLIC "-//W3C//DTD SVG 1.1//EN" "http://www.w3.org/Graphics/SVG/1.1/DTD/svg11.dtd"><svg t="1587700688498" class="icon" viewBox="0 0 1024 1024" version="1.1" xmlns="http://www.w3.org/2000/svg" p-id="17306" xmlns:xlink="http://www.w3.org/1999/xlink" width="200" height="200"><defs><style type="text/css"></style></defs><path d="M614.4 704h-12.8l-115.2 115.2c-51.2 51.2-147.2 57.6-204.8 0-57.6-57.6-51.2-147.2 0-204.8l115.2-115.2v-12.8L358.4 448h-12.8L230.4 563.2c-83.2 83.2-83.2 224 0 307.2s224 83.2 307.2 0l115.2-115.2v-12.8l-38.4-38.4z m256-473.6c-83.2-83.2-224-83.2-307.2 0L448 345.6v12.8l38.4 38.4h12.8l115.2-115.2c51.2-51.2 147.2-57.6 204.8 0 57.6 57.6 51.2 147.2 0 204.8L704 601.6v12.8l38.4 38.4h12.8l115.2-115.2c83.2-83.2 83.2-224 0-307.2z m-224 179.2h-12.8L409.6 640v12.8l38.4 38.4h12.8l224-224v-12.8l-38.4-44.8z" p-id="17307" fill="#989898"></path></svg>