<?xml version="1.0" standalone="no"?><!DOCTYPE svg PUBLIC "-//W3C//DTD SVG 1.1//EN" "http://www.w3.org/Graphics/SVG/1.1/DTD/svg11.dtd"><svg t="1587700915744" class="icon" viewBox="0 0 1120 1024" version="1.1" xmlns="http://www.w3.org/2000/svg" p-id="2344" xmlns:xlink="http://www.w3.org/1999/xlink" width="218.75" height="200"><defs><style type="text/css"></style></defs><path d="M1071.992764 1023.996544C1045.464943 1023.996544 1023.993088 1002.492689 1023.993088 975.996868L1023.993088 655.967028C1023.993088 629.471207 1045.464943 607.999352 1071.992764 607.999352 1098.488585 607.999352 1119.99244 629.471207 1119.99244 655.967028L1119.99244 975.996868C1119.99244 1002.492689 1098.488585 1023.996544 1071.992764 1023.996544ZM815.994492 1023.996544C789.466671 1023.996544 767.994816 1002.492689 767.994816 975.996868L767.994816 272.00162C767.994816 245.473799 789.466671 224.001944 815.994492 224.001944 842.490313 224.001944 863.994168 245.473799 863.994168 272.00162L863.994168 975.996868C863.994168 1002.492689 842.490313 1023.996544 815.994492 1023.996544ZM559.99622 1023.996544C533.468399 1023.996544 511.996544 1002.492689 511.996544 975.996868L511.996544 400.000756C511.996544 373.472935 533.468399 352.00108 559.99622 352.00108 586.492041 352.00108 607.995896 373.472935 607.995896 400.000756L607.995896 975.996868C607.995896 1002.492689 586.492041 1023.996544 559.99622 1023.996544ZM303.997948 1023.996544C277.470127 1023.996544 255.998272 1002.492689 255.998272 975.996868L255.998272 48.003132C255.998272 21.475311 277.470127 0.003456 303.997948 0.003456 330.493769 0.003456 351.997624 21.475311 351.997624 48.003132L351.997624 975.996868C351.997624 1002.492689 330.493769 1023.996544 303.997948 1023.996544ZM47.999676 1023.996544C21.471855 1023.996544 0 1002.492689 0 975.996868L0 496.000108C0 469.472287 21.471855 448.000432 47.999676 448.000432 74.495497 448.000432 95.999352 469.472287 95.999352 496.000108L95.999352 975.996868C95.999352 1002.492689 74.495497 1023.996544 47.999676 1023.996544Z" p-id="2345" fill="#22d59d"></path></svg>