<?xml version="1.0" encoding="utf-8"?>
<svg version="1.1" xmlns:xlink="http://www.w3.org/1999/xlink" width="85px" height="23px" xmlns="http://www.w3.org/2000/svg">
  <g transform="matrix(1 0 0 1 -50 -375 )">
    <path d="M 52 386.5  A 9.5 9.5 0 0 1 61.5 377 L 123.5 377  A 9.5 9.5 0 0 1 133 386.5 A 9.5 9.5 0 0 1 123.5 396 L 61.5 396  A 9.5 9.5 0 0 1 52 386.5 Z " fill-rule="nonzero" fill="#000000" stroke="none" fill-opacity="0.498039215686275" />
    <path d="M 51 386.5  A 10.5 10.5 0 0 1 61.5 376 L 123.5 376  A 10.5 10.5 0 0 1 134 386.5 A 10.5 10.5 0 0 1 123.5 397 L 61.5 397  A 10.5 10.5 0 0 1 51 386.5 Z " stroke-width="2" stroke="#aaaaaa" fill="none" stroke-opacity="0.662745098039216" />
  </g>
</svg>