<?xml version="1.0" encoding="utf-8"?>
<svg version="1.1" xmlns:xlink="http://www.w3.org/1999/xlink" width="20px" height="20px" xmlns="http://www.w3.org/2000/svg">
  <g transform="matrix(1 0 0 1 -336 -9 )">
    <path d="M 336 9  L 356 9  L 356 29  L 336 29  L 336 9  " fill-rule="nonzero" fill="#cccccc" stroke="none" />
    <path d="M 337 10  L 355 10  L 355 28  L 337 28  L 337 10  " fill-rule="nonzero" fill="#ffffff" stroke="none" />
    <path d="M 347.9 15  C 347.06 15  346.4 14.34  346.4 13.5  C 346.4 12.66  347.06 12  347.9 12  C 348.74 12  349.4 12.66  349.4 13.5  C 349.4 14.34  348.74 15  347.9 15  " fill-rule="nonzero" fill="#cccccc" stroke="none" />
    <path d="M 338 28  L 338 18.65  L 342.25 14.4  L 348.2 17.8  L 351.6 16.95  L 355 17.8  L 355 28  L 338 28  " fill-rule="nonzero" fill="#169bd5" stroke="none" />
  </g>
</svg>