<?xml version="1.0" standalone="no"?><!DOCTYPE svg PUBLIC "-//W3C//DTD SVG 1.1//EN" "http://www.w3.org/Graphics/SVG/1.1/DTD/svg11.dtd"><svg t="1587548104057" class="icon" viewBox="0 0 1024 1024" version="1.1" xmlns="http://www.w3.org/2000/svg" p-id="40323" xmlns:xlink="http://www.w3.org/1999/xlink" width="200" height="200"><defs><style type="text/css"></style></defs><path d="M911.460878 463.714274 227.7634 463.714274l317.671083-317.671083c18.733667-18.733667 18.733667-49.106418 0-67.840084l0 0c-18.733667-18.733667-49.106418-18.733667-67.840084 0L78.032214 477.765291c-0.559748 0.559748-1.103124 1.1328-1.63422 1.719154-0.25378 0.279363-0.49221 0.567935-0.737804 0.852414-0.265036 0.305969-0.534166 0.608867-0.791016 0.921999-0.301875 0.366344-0.587378 0.740874-0.87595 1.11438-0.186242 0.240477-0.376577 0.475837-0.557702 0.719384-0.306992 0.412392-0.598634 0.831948-0.890276 1.252527-0.151449 0.217964-0.306992 0.431835-0.454348 0.651846-0.290619 0.432859-0.565888 0.870834-0.840134 1.310855-0.13917 0.222057-0.281409 0.442068-0.416486 0.666172-0.25992 0.431835-0.506537 0.86981-0.75213 1.307785-0.138146 0.24764-0.280386 0.493234-0.414439 0.74292-0.222057 0.414439-0.431835 0.832971-0.641613 1.252527-0.144286 0.288572-0.290619 0.576121-0.428765 0.867764-0.181125 0.38374-0.352017 0.77055-0.522909 1.157359-0.150426 0.339738-0.301875 0.679475-0.444115 1.023306-0.14224 0.344854-0.275269 0.691755-0.409322 1.038656-0.152473 0.393973-0.304945 0.787946-0.448208 1.187035-0.10847 0.303922-0.207731 0.610914-0.310062 0.916882-0.148379 0.445138-0.296759 0.890276-0.432859 1.341554-0.081864 0.270153-0.154519 0.542352-0.231267 0.813528-0.137123 0.485047-0.272199 0.970094-0.393973 1.461281-0.062422 0.252757-0.116657 0.50756-0.176009 0.76134-0.116657 0.505513-0.232291 1.01205-0.333598 1.523703-0.051165 0.260943-0.093121 0.522909-0.140193 0.783853-0.090051 0.502443-0.181125 1.004887-0.255827 1.512447-0.044002 0.300852-0.076748 0.603751-0.11461 0.905626-0.059352 0.467651-0.122797 0.934279-0.168846 1.406023-0.039909 0.402159-0.062422 0.805342-0.092098 1.207501-0.026606 0.376577-0.062422 0.750083-0.080841 1.128707-0.038886 0.789992-0.060375 1.581008-0.060375 2.372024l0 0 0 0c0 0 0 0.001023 0 0.001023 0 0.789992 0.021489 1.581008 0.060375 2.369977 0.01842 0.378623 0.054235 0.753153 0.080841 1.12973 0.029676 0.402159 0.052189 0.804319 0.092098 1.206478 0.046049 0.471744 0.109494 0.939395 0.168846 1.407046 0.038886 0.301875 0.070608 0.603751 0.11461 0.904603 0.074701 0.508583 0.164752 1.011027 0.255827 1.51347 0.047072 0.260943 0.088004 0.521886 0.140193 0.782829 0.101307 0.512676 0.216941 1.019213 0.333598 1.52575 0.058328 0.252757 0.112564 0.50756 0.174985 0.759293 0.121773 0.491187 0.257873 0.977257 0.394996 1.463328 0.076748 0.271176 0.149403 0.542352 0.230244 0.812505 0.1361 0.451278 0.284479 0.89744 0.432859 1.343601 0.101307 0.304945 0.201591 0.610914 0.309038 0.914836 0.143263 0.400113 0.295735 0.795109 0.449231 1.190105 0.134053 0.345877 0.26606 0.691755 0.408299 1.035586 0.143263 0.344854 0.294712 0.685615 0.446162 1.026376 0.170892 0.385786 0.340761 0.771573 0.521886 1.154289 0.13917 0.292666 0.285502 0.581238 0.429789 0.86981 0.208754 0.418532 0.418532 0.837064 0.64059 1.25048 0.135076 0.25071 0.277316 0.497327 0.415462 0.74599 0.24457 0.436952 0.491187 0.873903 0.751107 1.305739 0.1361 0.225127 0.278339 0.446162 0.418532 0.669242 0.274246 0.437975 0.548492 0.87595 0.838088 1.307785 0.148379 0.221034 0.304945 0.436952 0.456395 0.655939 0.290619 0.418532 0.581238 0.837064 0.887206 1.248434 0.182149 0.245593 0.37453 0.483001 0.561795 0.724501 0.287549 0.37146 0.572028 0.744967 0.871857 1.109264 0.258896 0.316202 0.531096 0.621147 0.798179 0.929162 0.243547 0.281409 0.479931 0.566912 0.731664 0.844228 0.532119 0.586354 1.076518 1.161453 1.636267 1.721201l399.561162 399.561162c18.733667 18.733667 49.106418 18.733667 67.840084 0l0 0c18.733667-18.733667 18.733667-49.106418 0-67.840084L227.7634 559.65537l683.697477 0c26.493397 0 47.970548-21.47715 47.970548-47.970548l0 0C959.431425 485.191424 937.954275 463.714274 911.460878 463.714274z" p-id="40324" fill="#2c2c2c"></path></svg>