<?xml version="1.0" standalone="no"?><!DOCTYPE svg PUBLIC "-//W3C//DTD SVG 1.1//EN" "http://www.w3.org/Graphics/SVG/1.1/DTD/svg11.dtd"><svg t="1587584338266" class="icon" viewBox="0 0 1024 1024" version="1.1" xmlns="http://www.w3.org/2000/svg" p-id="5317" xmlns:xlink="http://www.w3.org/1999/xlink" width="200" height="200"><defs><style type="text/css"></style></defs><path d="M663.272727 80.756364A34.909091 34.909091 0 0 1 698.181818 116.363636v430.545455h-69.818182V116.363636a34.909091 34.909091 0 0 1 34.909091-35.607272z" p-id="5318" fill="#777777"></path><path d="M633.250909 87.272727a34.909091 34.909091 0 0 1 47.709091-12.8l161.28 93.090909a34.909091 34.909091 0 0 1 12.8 47.709091 34.909091 34.909091 0 0 1-47.709091 12.8l-161.28-93.090909a34.909091 34.909091 0 0 1-12.8-47.709091zM398.429091 95.418182l17.92 67.490909A372.363636 372.363636 0 1 0 884.363636 522.938182a377.949091 377.949091 0 0 0-18.850909-117.76l65.396364-21.876364A442.181818 442.181818 0 1 1 398.429091 95.418182z" p-id="5319" fill="#777777"></path><path d="M512 662.574545a116.363636 116.363636 0 1 0-116.363636-116.363636 116.363636 116.363636 0 0 0 116.363636 116.363636z m0 69.818182a186.181818 186.181818 0 1 1 186.181818-186.181818 186.181818 186.181818 0 0 1-186.181818 186.181818z" p-id="5320" fill="#777777"></path><path d="M898.792727 429.847273a34.909091 34.909091 0 1 0-34.909091-34.909091 34.909091 34.909091 0 0 0 34.909091 34.909091z" p-id="5321" fill="#777777"></path><path d="M407.272727 164.072727a34.909091 34.909091 0 1 0-34.909091-34.909091 34.909091 34.909091 0 0 0 34.909091 34.909091z" p-id="5322" fill="#777777"></path></svg>