<?xml version="1.0" standalone="no"?><!DOCTYPE svg PUBLIC "-//W3C//DTD SVG 1.1//EN" "http://www.w3.org/Graphics/SVG/1.1/DTD/svg11.dtd"><svg t="1587547786931" class="icon" viewBox="0 0 1024 1024" version="1.1" xmlns="http://www.w3.org/2000/svg" p-id="31517" xmlns:xlink="http://www.w3.org/1999/xlink" width="200" height="200"><defs><style type="text/css"></style></defs><path d="M916.333814 787.170003 104.563373 787.170003c-21.669548 0-39.227255 17.551567-39.227255 39.199624 0 21.655221 17.557707 39.206788 39.227255 39.206788l811.770441 0c21.669548 0 39.227255-17.551567 39.227255-39.206788C955.561069 804.721569 938.002339 787.170003 916.333814 787.170003L916.333814 787.170003zM916.333814 473.16469 104.563373 473.16469c-21.669548 0-39.227255 17.551567-39.227255 39.206788 0 21.647034 17.557707 39.199624 39.227255 39.199624l811.770441 0c21.669548 0 39.227255-17.55259 39.227255-39.199624C955.561069 490.716257 938.002339 473.16469 916.333814 473.16469L916.333814 473.16469zM104.570537 237.563743l811.763277 0c21.669548 0 39.234418-17.551567 39.234418-39.206788 0-21.647034-17.56487-39.199624-39.234418-39.199624L104.570537 159.157331c-21.669548 0-39.234418 17.55259-39.234418 39.199624C65.336118 220.012176 82.893825 237.563743 104.570537 237.563743L104.570537 237.563743zM104.570537 237.563743" p-id="31518" fill="#747474"></path></svg>