<?xml version="1.0" standalone="no"?><!DOCTYPE svg PUBLIC "-//W3C//DTD SVG 1.1//EN" "http://www.w3.org/Graphics/SVG/1.1/DTD/svg11.dtd"><svg t="1587701138595" class="icon" viewBox="0 0 1024 1024" version="1.1" xmlns="http://www.w3.org/2000/svg" p-id="6128" xmlns:xlink="http://www.w3.org/1999/xlink" width="200" height="200"><defs><style type="text/css"></style></defs><path d="M512 1024c-282.769683 0-512-229.230317-512-512s229.230317-512 512-512 512 229.230317 512 512-229.230317 512-512 512zM392.532651 273.066326c-28.277071 0-51.2 22.922929-51.2 51.2v375.466325c0 28.277071 22.922929 51.2 51.2 51.2 28.277071 0 51.2-22.922929 51.2-51.2V324.266326c0-28.277071-22.922929-51.2-51.2-51.2z m238.933675 0c-28.277071 0-51.2 22.922929-51.2 51.2v375.466325c0 28.277071 22.922929 51.2 51.2 51.2 28.277071 0 51.2-22.922929 51.2-51.2V324.266326c0-28.277071-22.922929-51.2-51.2-51.2z" p-id="6129" fill="#ffffff"></path></svg>