<?xml version="1.0" standalone="no"?><!DOCTYPE svg PUBLIC "-//W3C//DTD SVG 1.1//EN" "http://www.w3.org/Graphics/SVG/1.1/DTD/svg11.dtd"><svg t="1587574063047" class="icon" viewBox="0 0 1024 1024" version="1.1" xmlns="http://www.w3.org/2000/svg" p-id="24064" xmlns:xlink="http://www.w3.org/1999/xlink" width="200" height="200"><defs><style type="text/css"></style></defs><path d="M548.48 254.72H475.52l12.16 343.04h48.64l12.16-343.04z" p-id="24065" fill="#c55d74"></path><path d="M512 720m-49.28 0a49.28 49.28 0 1 0 98.56 0 49.28 49.28 0 1 0-98.56 0Z" p-id="24066" fill="#c55d74"></path><path d="M512 64a448 448 0 1 1-448 448 448 448 0 0 1 448-448m0-64a512 512 0 1 0 512 512 512 512 0 0 0-512-512z" p-id="24067" fill="#c55d74"></path></svg>