<?xml version="1.0" standalone="no"?><!DOCTYPE svg PUBLIC "-//W3C//DTD SVG 1.1//EN" "http://www.w3.org/Graphics/SVG/1.1/DTD/svg11.dtd"><svg t="1587572339574" class="icon" viewBox="0 0 1024 1024" version="1.1" xmlns="http://www.w3.org/2000/svg" p-id="23100" xmlns:xlink="http://www.w3.org/1999/xlink" width="200" height="200"><defs><style type="text/css"></style></defs><path d="M896 1024 128 1024C57.312256 1024 0 966.700032 0 896L0 128C0 57.312256 57.312256 0 128 0l768 0c70.700032 0 128 57.312256 128 128l0 768C1024 966.700032 966.700032 1024 896 1024zM947.2 153.6c0-42.412032-34.374656-76.8-76.8-76.8L153.6 76.8c-42.412032 0-76.8 34.387968-76.8 76.8l0 716.8c0 42.425344 34.387968 76.8 76.8 76.8l716.8 0c42.425344 0 76.8-34.374656 76.8-76.8L947.2 153.6zM486.73792 686.475264c-1.762304 5.900288-4.450304 11.575296-9.124864 16.22528l-18.100224 18.1248c-14.999552 14.974976-39.312384 14.974976-54.299648 0L187.987968 503.58784c-14.999552-14.987264-14.999552-39.300096 0-54.299648l18.100224-18.100224c14.999552-14.999552 39.312384-14.999552 54.299648 0L428.8 599.600128l339.475456-339.475456c14.999552-14.999552 39.300096-14.999552 54.299648 0l18.100224 18.100224c14.999552 14.999552 14.999552 39.312384 0 54.31296L486.73792 686.475264z" p-id="23101" fill="#ffffff"></path></svg>