<?xml version="1.0" standalone="no"?><!DOCTYPE svg PUBLIC "-//W3C//DTD SVG 1.1//EN" "http://www.w3.org/Graphics/SVG/1.1/DTD/svg11.dtd"><svg t="1587572347092" class="icon" viewBox="0 0 1024 1024" version="1.1" xmlns="http://www.w3.org/2000/svg" p-id="23283" xmlns:xlink="http://www.w3.org/1999/xlink" width="200" height="200"><defs><style type="text/css"></style></defs><path d="M196.559014 79.272844a117.938308 117.938308 0 0 0-83.395415 34.539896 117.941305 117.941305 0 0 0-34.539897 83.395415v628.983335a117.943303 117.943303 0 0 0 34.539897 83.395415 117.93731 117.93731 0 0 0 83.395415 34.540895h628.983334a117.939307 117.939307 0 0 0 83.395415-34.540895 117.93731 117.93731 0 0 0 34.540896-83.395415V197.208155a117.939307 117.939307 0 0 0-34.540896-83.395415 117.941305 117.941305 0 0 0-83.395415-34.539896H196.559014z m0-78.623541h628.983334c108.558385 0 196.558853 88.000468 196.558853 196.558852v628.983335c0 108.558385-88.000468 196.558853-196.558853 196.558852H196.559014a196.575835 196.575835 0 0 1-138.989695-57.568159A196.569841 196.569841 0 0 1 0.000161 826.19149V197.208155A196.574836 196.574836 0 0 1 57.569319 58.218461 196.576833 196.576833 0 0 1 196.559014 0.649303z m0 0" p-id="23284" fill="#ffffff"></path></svg>