<?xml version="1.0" standalone="no"?><!DOCTYPE svg PUBLIC "-//W3C//DTD SVG 1.1//EN" "http://www.w3.org/Graphics/SVG/1.1/DTD/svg11.dtd"><svg t="1587557063032" class="icon" viewBox="0 0 1024 1024" version="1.1" xmlns="http://www.w3.org/2000/svg" p-id="14054" xmlns:xlink="http://www.w3.org/1999/xlink" width="200" height="200"><defs><style type="text/css"></style></defs><path d="M576.02612305 503.49163818L912.6741333 166.84280396c17.01672363-17.01754761 17.01672363-44.95275879 0-61.9703064l-1.8432312-1.8432312c-17.01672363-17.01672363-44.95275879-17.01672363-61.96948242 0L512.21258545 440.10409546 175.56375122 102.88754273c-17.01672363-17.01672363-44.95275879-17.01672363-61.96948242 0l-1.84405518 1.8432312c-17.44189453 17.01672363-17.44189453 44.95275879 0 61.96948242l336.64965821 336.79138183L111.75021362 840.13964844c-17.01672363 17.01672363-17.01672363 44.95275879 0 61.96948242l1.84405518 1.84405518c17.01672363 17.01672363 44.95275879 17.01672363 61.96948242 0l336.64883423-336.64965821 336.6496582 336.64965821c17.01672363 17.01672363 44.95275879 17.01672363 61.96948242 0l1.8432312-1.84405518c17.01672363-17.01672363 17.01672363-44.95275879 0-61.96948242L576.02612305 503.49163818z" p-id="14055" fill="#9f9f9f"></path></svg>